<?xml version="1.0" encoding="utf-8"?>
<!DOCTYPE svg PUBLIC "-//W3C//DTD SVG 1.1//EN" "http://www.w3.org/Graphics/SVG/1.1/DTD/svg11.dtd">
<svg version="1.1" xmlns="http://www.w3.org/2000/svg" xmlns:xlink="http://www.w3.org/1999/xlink" x="0px" y="0px" width="1600px"
	 height="1000px" viewBox="0 0 1600 1000" enable-background="new 0 0 1600 1000" xml:space="preserve">
<g id="Logo">
	<linearGradient id="SVGID_1_" gradientUnits="userSpaceOnUse" x1="5.3569" y1="500" x2="1594.6426" y2="500">
		<stop  offset="0" style="stop-color:#F7941E"/>
		<stop  offset="1" style="stop-color:#F7941E"/>
	</linearGradient>
	<path fill="url(#SVGID_1_)" d="M1594.643,305.467c0,0-88.721,209.843-160.003,288.333c-24.985,27.512-79.503,74.142-130,47
		c-36.087-19.397-63.495-68.994-82-111c-20.562-46.674-36.985-96.704-51-142c-14.568-47.084-27.946-98.682-48-145
		c-18.775-43.367-49.369-85.323-103-90c-51.248-4.469-87.754,21.31-114,47c-26.742,26.176-50.557,65.55-67,95
		c-38.49,68.937-68.395,143.899-102,221c-47,107.833-55.835,121.693-55.835,121.693s31.835-74.026,49.502-144.026
		C718.942,453.1,674.443,293.911,629.64,199.8c-21.68-45.54-49.506-90.949-87-125c-35.011-31.795-88.16-60.083-158-55
		c-42.976,3.128-79.691,21.392-110,42c-31.006,21.083-56.863,47.081-78,74c-44.83,57.093-79.193,126.786-106,199
		c-27.967,75.339-50.193,152.018-65,240c-13.95,82.892-29.895,188.699-13,278c8.392,44.359,24.701,73.65,54,98
		c25.65,21.318,69.675,37.938,119,26c41.102-9.947,69.305-34.266,88-64c20.842-33.148,21.777-76.463,28-125
		c17.112-133.473,46.063-262.435,82-375c45.333-142,112.5-209.167,112.5-209.167s-37.886,49.247-58.25,112.625
		c49.473,81.299,76.63,178.626,108.75,280.542c15.581,49.437,31.347,103.208,54,150c22.312,46.086,52.937,86.332,103,101
		c63.718,18.67,115.582-12.924,148-46c34.385-35.082,57.815-81.385,78-126c32.157-71.076,57.213-148.49,82-224
		c36-109.667,64.83-148.666,64.83-148.666s-18.241,39.641-29.489,86.704c31.112,58.781,59.106,117.559,97.659,178.961
		c18.354,29.233,38.175,58.843,65,84c24.66,23.127,56.615,48.637,97,52c62.594,5.213,99.644-30.188,128-63
		C1512.201,552.049,1594.643,305.467,1594.643,305.467L1594.643,305.467z"/>
</g>
<g id="Horizontalschatten">
	<linearGradient id="SVGID_2_" gradientUnits="userSpaceOnUse" x1="109.231" y1="496.8896" x2="657.8679" y2="606.774">
		<stop  offset="0" style="stop-color:#F7941E"/>
		<stop  offset="0.3851" style="stop-color:#F58220"/>
		<stop  offset="1" style="stop-color:#F7941E"/>
	</linearGradient>
	<path fill="url(#SVGID_2_)" d="M629.64,244.005c-21.68-45.54-49.506-90.949-87-125c-6.751-6.131-14.184-12.128-22.274-17.784
		c-26.278,19.568-68.658,68.161-69.367,69.077c-10.917,11.723-69.735,78.93-110.716,207.296c-35.937,112.564-64.888,241.527-82,375
		c-6.223,48.537-7.158,91.852-28,125c-18.695,29.734-46.898,54.053-88,64c-36.722,8.888-70.5,1.942-95.952-10.982
		c2.228,2.687,4.564,5.303,7.016,7.855c4.102,4.417,8.66,8.483,13.292,12.332c25.65,21.318,69.675,37.938,119,26
		c41.102-9.947,69.305-34.266,88-64c20.842-33.148,21.777-76.463,28-125c14.811-115.524,38.496-227.661,67.898-328.72
		c7.029-24.159,14.304-48.296,22.821-71.979c8.417-23.404,17.99-46.421,28.903-68.774c5.247-11.019,11.058-21.763,16.959-32.44
		c18.966-33.777,36.305-56.913,46.967-69.843c3.485-4.26,7.079-8.495,10.952-12.41c0,0-37.886,49.247-58.25,112.625
		c49.473,81.299,76.63,178.626,108.75,280.542c15.581,49.437,31.347,103.208,54,150c2.137,4.414,4.349,8.801,6.687,13.111
		c1.123,2.068,2.245,4.138,3.41,6.183c0.608,1.067,1.221,2.133,1.838,3.195c0.299,0.514,0.603,1.025,0.901,1.54
		c0.098,0.169,0.721,1.089,0.696,1.154c3.838,6.415,7.891,12.633,12.223,18.564l89.166-305.711
		C695.622,418.416,662.716,313.482,629.64,244.005C607.959,198.465,662.716,313.482,629.64,244.005
		C607.959,198.465,662.716,313.482,629.64,244.005C607.959,198.465,662.716,313.482,629.64,244.005
		C607.959,198.465,662.716,313.482,629.64,244.005z"/>
	<path fill-rule="evenodd" clip-rule="evenodd" fill="#F58220" d="M1444.674,629.086c-14.344,17.71-31.063,33.503-49.968,46.27
		c-9.606,6.487-19.72,12.183-30.508,16.466c-10.694,4.246-21.914,7.125-33.335,8.527c-11.666,1.433-23.455,1.31-35.045-0.713
		c-11.403-1.99-22.456-5.703-32.906-10.654c-17.124-8.112-32.219-19.84-46.947-31.62c-1.998-1.599-3.987-3.208-5.983-4.81
		c-0.998-0.801-1.981-1.687-3.063-2.374c14.653,14.163,30.449,27.529,48.173,37.708c9.219,5.294,18.981,9.684,29.188,12.694
		c10.702,3.157,21.747,4.595,32.891,4.725c19.768,0.229,39.346-3.97,57.094-12.729c15.706-7.751,29.574-18.689,42.002-30.944
		c11.5-11.34,22.158-23.645,31.693-36.674C1446.865,626.333,1445.781,627.719,1444.674,629.086
		C1428.108,649.538,1445.781,627.719,1444.674,629.086z"/>
	<linearGradient id="SVGID_3_" gradientUnits="userSpaceOnUse" x1="717.0293" y1="481.8398" x2="1141.6692" y2="610.9492">
		<stop  offset="0" style="stop-color:#F7941E"/>
		<stop  offset="0.5693" style="stop-color:#F58220"/>
		<stop  offset="1" style="stop-color:#F7941E"/>
	</linearGradient>
	<path fill="url(#SVGID_3_)" d="M1171.64,432.005c-14.568-47.084-27.946-98.682-48-145c-10.49-24.229-24.675-48.012-44.5-65.105
		c-2.825,3.58-5.604,7.239-8.317,10.967c-25.47,33.163-58.086,90.957-88.54,183.728c-24.787,75.509-49.843,152.923-82,224
		c-20.185,44.615-43.615,90.918-78,126c-32.418,33.076-84.282,64.67-148,46c-21.269-6.231-39.018-17.092-54.123-31.042
		c0.003,0.006,0.007,0.011,0.01,0.017c0.009,0.014,0.019,0.027,0.028,0.041c0.918,1.393,1.849,2.772,2.793,4.14
		c0.003,0.004,0.006,0.008,0.009,0.013c0.944,1.366,1.901,2.721,2.871,4.061c0.033,0.046,0.066,0.092,0.099,0.137
		c0.042,0.059,0.084,0.117,0.126,0.176c0.615,0.846,1.236,1.687,1.861,2.521c0.094,0.125,0.188,0.249,0.282,0.373
		c0.931,1.237,1.875,2.461,2.832,3.672c0.005,0.006,0.009,0.012,0.014,0.018c0.954,1.208,1.921,2.403,2.9,3.584
		c4.014,4.842,8.269,9.484,12.789,13.858c16.035,15.542,35.391,27.338,56.866,33.638c63.718,18.67,115.582-12.924,148-46
		c34.385-35.082,57.815-81.385,78-126c32.157-71.076,57.213-148.49,82-224c7.511-22.88,15.642-45.565,24.669-67.893
		c8.693-21.46,18.131-42.713,29.333-62.996c3.339-6.046,6.754-12.186,10.828-17.776c0,0-18.241,39.641-29.489,86.704
		c31.112,58.781,59.106,117.559,97.659,178.961c2.042,3.253,4.106,6.51,6.194,9.765c0.812,1.266,1.647,2.528,2.467,3.793
		c1.229,1.896,2.448,3.793,3.697,5.685c0-0.002,0.001-0.005,0.002-0.007c0.179,0.272,0.352,0.545,0.532,0.816
		c11.806-31.923,22.806-64.405,33.531-96.819C1184.062,471.581,1177.628,451.36,1171.64,432.005
		C1157.071,384.921,1177.628,451.36,1171.64,432.005C1157.071,384.921,1177.628,451.36,1171.64,432.005
		C1157.071,384.921,1177.628,451.36,1171.64,432.005z"/>
</g>
</svg>
