<?xml version="1.0" encoding="utf-8"?>
<!-- Generator: Adobe Illustrator 15.0.2, SVG Export Plug-In . SVG Version: 6.00 Build 0)  -->
<!DOCTYPE svg PUBLIC "-//W3C//DTD SVG 1.1//EN" "http://www.w3.org/Graphics/SVG/1.1/DTD/svg11.dtd">
<svg version="1.1" id="Layer_1" xmlns="http://www.w3.org/2000/svg" xmlns:xlink="http://www.w3.org/1999/xlink" x="0px" y="0px"
	 width="1600px" height="1000px" viewBox="0 0 1600 1000" enable-background="new 0 0 1600 1000" xml:space="preserve">
<g id="Logo">
	
		<linearGradient id="SVGID_1_" gradientUnits="userSpaceOnUse" x1="214.6897" y1="208.0093" x2="1724.51" y2="208.0093" gradientTransform="matrix(1 0 0 -1 -169.5996 708.0098)">
		<stop  offset="0" style="stop-color:#F7941E"/>
		<stop  offset="1" style="stop-color:#F7941E"/>
	</linearGradient>
	<path fill="url(#SVGID_1_)" d="M1554.91,315.193c0,0-84.284,199.351-152.003,273.916c-23.735,26.138-75.527,70.436-123.5,44.65
		c-34.282-18.427-60.32-65.544-77.899-105.45c-19.534-44.34-35.136-91.869-48.45-134.9c-13.84-44.729-26.549-93.748-45.6-137.75
		c-17.837-41.198-46.901-81.057-97.851-85.5c-48.686-4.245-83.366,20.245-108.3,44.65c-25.405,24.867-48.029,62.272-63.65,90.25
		c-36.565,65.49-64.975,136.704-96.899,209.95c-44.65,102.441-53.043,115.608-53.043,115.608s30.243-70.324,47.027-136.825
		c-11.747-38.349-54.021-189.578-96.583-278.983c-20.596-43.263-47.031-86.401-82.65-118.75
		c-33.26-30.206-83.752-57.079-150.1-52.25c-40.828,2.971-75.707,20.322-104.5,39.9c-29.456,20.029-54.02,44.727-74.1,70.3
		c-42.588,54.239-75.233,120.447-100.7,189.05c-26.569,71.572-47.684,144.417-61.75,228c-13.253,78.748-28.4,179.265-12.35,264.101
		c7.973,42.141,23.466,69.968,51.3,93.1c24.368,20.253,66.191,36.042,113.05,24.7c39.047-9.45,65.839-32.553,83.6-60.8
		c19.8-31.49,20.688-72.64,26.6-118.75c16.257-126.8,43.759-249.313,77.9-356.25c43.066-134.9,106.875-198.708,106.875-198.708
		s-35.991,46.785-55.337,106.994c46.999,77.234,72.798,169.695,103.313,266.515c14.802,46.966,29.779,98.048,51.3,142.5
		c21.196,43.781,50.29,82.016,97.85,95.95c60.532,17.736,109.803-12.278,140.6-43.7c32.666-33.328,54.924-77.315,74.1-119.7
		c30.55-67.522,54.353-141.065,77.9-212.8c34.2-104.184,61.589-141.233,61.589-141.233s-17.329,37.659-28.015,82.369
		c29.557,55.842,56.149,111.68,92.775,170.013c17.437,27.771,36.267,55.9,61.75,79.8c23.428,21.971,53.784,46.205,92.15,49.399
		c59.464,4.952,94.661-28.678,121.6-59.85C1476.59,549.446,1554.91,315.193,1554.91,315.193L1554.91,315.193z"/>
</g>
<g id="Horizontalschatten">
	
		<linearGradient id="SVGID_2_" gradientUnits="userSpaceOnUse" x1="313.3704" y1="210.9653" x2="834.575" y2="106.5752" gradientTransform="matrix(1 0 0 -1 -169.5996 708.0098)">
		<stop  offset="0" style="stop-color:#F7941E"/>
		<stop  offset="0.3851" style="stop-color:#F58220"/>
		<stop  offset="1" style="stop-color:#F7941E"/>
	</linearGradient>
	<path fill="url(#SVGID_2_)" d="M638.158,256.805c-20.596-43.263-47.031-86.401-82.65-118.75
		c-6.414-5.824-13.476-11.521-21.161-16.895c-24.964,18.589-65.225,64.752-65.899,65.623
		c-10.37,11.137-66.248,74.983-105.18,196.931c-34.14,106.937-61.643,229.451-77.899,356.25c-5.913,46.11-6.8,87.26-26.6,118.75
		c-17.761,28.248-44.554,51.351-83.6,60.8c-34.886,8.444-66.975,1.846-91.154-10.432c2.116,2.552,4.335,5.037,6.665,7.462
		c3.897,4.195,8.228,8.059,12.627,11.715c24.368,20.253,66.191,36.042,113.05,24.7c39.047-9.45,65.839-32.553,83.6-60.8
		c19.8-31.49,20.688-72.64,26.6-118.75c14.07-109.747,36.571-216.278,64.503-312.284c6.678-22.951,13.589-45.881,21.68-68.38
		c7.996-22.234,17.09-44.1,27.458-65.335c4.985-10.468,10.505-20.675,16.111-30.818c18.018-32.088,34.49-54.067,44.619-66.351
		c3.311-4.047,6.725-8.07,10.404-11.79c0,0-35.991,46.785-55.337,106.994c46.999,77.234,72.798,169.695,103.313,266.515
		c14.802,46.966,29.779,98.048,51.3,142.5c2.03,4.193,4.131,8.36,6.352,12.456c1.067,1.964,2.133,3.931,3.24,5.873
		c0.578,1.014,1.161,2.026,1.746,3.035c0.285,0.488,0.573,0.975,0.856,1.464c0.093,0.16,0.685,1.034,0.662,1.096
		c3.646,6.094,7.496,12.002,11.611,17.636l84.708-290.425C700.84,422.495,669.58,322.808,638.158,256.805
		C617.561,213.542,669.58,322.808,638.158,256.805C617.561,213.542,669.58,322.808,638.158,256.805
		C617.561,213.542,669.58,322.808,638.158,256.805C617.561,213.542,669.58,322.808,638.158,256.805z"/>
	<path fill="#F58220" d="M1412.441,622.632c-13.628,16.824-29.511,31.827-47.471,43.957c-9.125,6.162-18.733,11.573-28.982,15.643
		c-10.158,4.033-20.818,6.769-31.668,8.1c-11.083,1.362-22.282,1.245-33.293-0.677c-10.833-1.89-21.333-5.418-31.261-10.121
		c-16.268-7.707-30.607-18.849-44.599-30.039c-1.898-1.52-3.788-3.048-5.685-4.57c-0.948-0.761-1.883-1.602-2.91-2.255
		c13.921,13.455,28.927,26.152,45.765,35.822c8.758,5.029,18.032,9.2,27.729,12.06c10.167,3,20.659,4.365,31.246,4.488
		c18.78,0.219,37.379-3.771,54.24-12.092c14.92-7.363,28.094-17.755,39.901-29.397c10.925-10.772,21.05-22.462,30.107-34.84
		C1414.522,620.017,1413.491,621.333,1412.441,622.632C1396.702,642.062,1413.491,621.333,1412.441,622.632z"/>
	
		<linearGradient id="SVGID_3_" gradientUnits="userSpaceOnUse" x1="890.7776" y1="225.2612" x2="1294.1857" y2="102.6072" gradientTransform="matrix(1 0 0 -1 -169.5996 708.0098)">
		<stop  offset="0" style="stop-color:#F7941E"/>
		<stop  offset="0.5693" style="stop-color:#F58220"/>
		<stop  offset="1" style="stop-color:#F7941E"/>
	</linearGradient>
	<path fill="url(#SVGID_3_)" d="M1153.058,435.405c-13.84-44.73-26.549-93.748-45.6-137.75
		c-9.966-23.018-23.441-45.611-42.275-61.85c-2.684,3.401-5.324,6.877-7.901,10.418c-24.196,31.505-55.182,86.409-84.113,174.542
		c-23.548,71.733-47.351,145.277-77.899,212.8c-19.176,42.384-41.434,86.372-74.101,119.699
		c-30.797,31.423-80.067,61.437-140.6,43.7c-20.206-5.919-37.067-16.237-51.417-29.489c0.002,0.005,0.007,0.011,0.01,0.017
		c0.008,0.013,0.018,0.024,0.026,0.039c0.872,1.322,1.757,2.633,2.653,3.933c0.003,0.003,0.005,0.007,0.009,0.012
		c0.896,1.298,1.805,2.586,2.727,3.858c0.032,0.044,0.063,0.087,0.095,0.13c0.04,0.057,0.08,0.111,0.12,0.167
		c0.584,0.805,1.174,1.604,1.768,2.396c0.089,0.118,0.178,0.236,0.267,0.354c0.885,1.175,1.781,2.338,2.69,3.488
		c0.005,0.005,0.009,0.011,0.013,0.017c0.906,1.147,1.826,2.283,2.755,3.404c3.813,4.601,7.856,9.011,12.149,13.166
		c15.233,14.765,33.621,25.971,54.023,31.956c60.532,17.736,109.803-12.278,140.6-43.7c32.666-33.328,54.924-77.315,74.1-119.7
		c30.55-67.522,54.353-141.064,77.9-212.8c7.136-21.736,14.859-43.287,23.436-64.498c8.259-20.387,17.225-40.578,27.866-59.846
		c3.172-5.744,6.416-11.577,10.287-16.887c0,0-17.329,37.659-28.015,82.368c29.557,55.842,56.149,111.682,92.775,170.013
		c1.94,3.091,3.9,6.186,5.884,9.277c0.772,1.203,1.565,2.401,2.345,3.604c1.167,1.801,2.325,3.604,3.512,5.4
		c0-0.002,0.001-0.005,0.002-0.007c0.17,0.259,0.335,0.519,0.505,0.775c11.217-30.327,21.667-61.185,31.855-91.978
		C1164.859,473.002,1158.746,453.792,1153.058,435.405C1139.217,390.675,1158.746,453.792,1153.058,435.405
		C1139.217,390.675,1158.746,453.792,1153.058,435.405C1139.217,390.675,1158.746,453.792,1153.058,435.405z"/>
</g>
</svg>
