<?xml version="1.0" encoding="utf-8"?>
<!-- Generator: Adobe Illustrator 15.0.2, SVG Export Plug-In . SVG Version: 6.00 Build 0)  -->
<!DOCTYPE svg PUBLIC "-//W3C//DTD SVG 1.1//EN" "http://www.w3.org/Graphics/SVG/1.1/DTD/svg11.dtd">
<svg version="1.1" id="Layer_1" xmlns="http://www.w3.org/2000/svg" xmlns:xlink="http://www.w3.org/1999/xlink" x="0px" y="0px"
	 width="78.917px" height="80.464px" viewBox="0 0 78.917 80.464" enable-background="new 0 0 78.917 80.464" xml:space="preserve">
<path fill="#F58233" d="M25.472,44.51c0,0,7.25-5.875,7.625-6.813s2.375-7.75,4.938-10.625S48.76,11.668,48.51,8.105
	s-0.49-6.346,0.379-7.408s4.458-1,6.208,0.813s3.813,6.438,3.563,9.688S55.018,27.95,55.018,27.95s7.517,0.122,8.892-0.003
	c0.752-0.068,4.063-0.941,5.688-1c2.292-0.083,7.334,0.75,7.688,6.25c0.109,1.709-1.375,4.188-1.375,4.188s2.988,0.372,3,6.75
	c0.008,4.271-1.687,5.438-1.687,5.438s1.692,1.874,1.694,5.125c0.003,5.063-4.258,6.688-4.258,6.688s1.375,1.625,1.188,4.5
	S70.91,74.26,57.222,74.01s-15.126-1.394-22.917,1.313C29.347,65.197,26.43,55.53,25.472,44.51z"/>
<path fill="#F58233" d="M30.485,76.662c-3.721-6.048-7.721-16.465-9.638-34.068C17.595,42.678,2.18,44.947,0.1,45.865
	c-0.584,0.417,0.914,21.582,17.585,34.599C19.764,80.464,27.55,78.303,30.485,76.662z"/>
</svg>
