<?xml version="1.0" encoding="utf-8"?>
<!-- Generator: Adobe Illustrator 15.0.2, SVG Export Plug-In . SVG Version: 6.00 Build 0)  -->
<!DOCTYPE svg PUBLIC "-//W3C//DTD SVG 1.1//EN" "http://www.w3.org/Graphics/SVG/1.1/DTD/svg11.dtd">
<svg version="1.1" id="Layer_1" xmlns="http://www.w3.org/2000/svg" xmlns:xlink="http://www.w3.org/1999/xlink" x="0px" y="0px"
	 width="20.217px" height="43.319px" viewBox="0 0 20.217 43.319" enable-background="new 0 0 20.217 43.319" xml:space="preserve">
<g>
	<path d="M4.371,8.39c0,1.092,0,5.965,0,5.965H0v7.293h4.371v21.672h8.977V21.647h6.021c0,0,0.564-3.497,0.838-7.321
		c-0.783,0-6.826,0-6.826,0s0-4.242,0-4.986s0.979-1.747,1.945-1.747s3.004,0,4.891,0c0-0.993,0-4.425,0-7.593
		c-2.52,0-5.385,0-6.648,0C4.148,0,4.371,7.3,4.371,8.39z"/>
</g>
</svg>
