<?xml version="1.0" encoding="utf-8"?>
<!-- Generator: Adobe Illustrator 15.0.2, SVG Export Plug-In . SVG Version: 6.00 Build 0)  -->
<!DOCTYPE svg PUBLIC "-//W3C//DTD SVG 1.1//EN" "http://www.w3.org/Graphics/SVG/1.1/DTD/svg11.dtd">
<svg version="1.1" id="Layer_1" xmlns="http://www.w3.org/2000/svg" xmlns:xlink="http://www.w3.org/1999/xlink" x="0px" y="0px"
	 width="48.667px" height="47.465px" viewBox="0 0 48.667 47.465" enable-background="new 0 0 48.667 47.465" xml:space="preserve">
<g>
	<path fill-rule="evenodd" clip-rule="evenodd" d="M24.333,0C10.896,0,0,10.894,0,24.333c0,10.751,6.972,19.872,16.641,23.09
		c1.216,0.226,1.662-0.527,1.662-1.171c0-0.58-0.022-2.497-0.033-4.53c-6.77,1.473-8.198-2.871-8.198-2.871
		C8.965,36.038,7.37,35.29,7.37,35.29c-2.208-1.51,0.167-1.479,0.167-1.479c2.443,0.171,3.73,2.508,3.73,2.508
		c2.17,3.72,5.692,2.645,7.081,2.022c0.219-1.572,0.849-2.646,1.545-3.254c-5.405-0.615-11.086-2.702-11.086-12.025
		c0-2.657,0.951-4.827,2.507-6.532c-0.252-0.612-1.085-3.087,0.236-6.439c0,0,2.043-0.653,6.693,2.495
		c1.941-0.539,4.023-0.81,6.091-0.819c2.068,0.01,4.151,0.28,6.095,0.819c4.645-3.148,6.686-2.495,6.686-2.495
		c1.324,3.353,0.491,5.827,0.238,6.439c1.561,1.705,2.505,3.875,2.505,6.532c0,9.346-5.692,11.403-11.111,12.006
		c0.873,0.755,1.65,2.236,1.65,4.506c0,3.256-0.028,5.876-0.028,6.678c0,0.648,0.438,1.407,1.672,1.168
		c9.663-3.222,16.627-12.339,16.627-23.087C48.667,10.894,37.772,0,24.333,0z"/>
	<path d="M9.216,34.937c-0.054,0.122-0.244,0.158-0.417,0.075c-0.176-0.08-0.275-0.245-0.218-0.366
		C8.633,34.521,8.823,34.486,9,34.57C9.176,34.649,9.277,34.815,9.216,34.937L9.216,34.937z M8.917,34.715"/>
	<path d="M10.202,36.036c-0.116,0.107-0.343,0.058-0.497-0.112c-0.159-0.17-0.188-0.396-0.071-0.506
		c0.12-0.107,0.339-0.057,0.499,0.112C10.292,35.702,10.323,35.928,10.202,36.036L10.202,36.036z M9.97,35.787"/>
	<path d="M11.161,37.438c-0.149,0.104-0.393,0.007-0.544-0.21c-0.149-0.216-0.149-0.476,0.004-0.579
		c0.15-0.104,0.391-0.011,0.544,0.204C11.313,37.072,11.313,37.332,11.161,37.438L11.161,37.438z M11.161,37.438"/>
	<path d="M12.476,38.792c-0.133,0.146-0.417,0.107-0.625-0.094c-0.213-0.195-0.272-0.475-0.138-0.621
		c0.135-0.147,0.421-0.106,0.63,0.093C12.553,38.366,12.618,38.646,12.476,38.792L12.476,38.792z M12.476,38.792"/>
	<path d="M14.289,39.578c-0.059,0.19-0.333,0.276-0.608,0.196c-0.275-0.084-0.455-0.308-0.399-0.499
		c0.057-0.192,0.332-0.282,0.609-0.196C14.166,39.162,14.346,39.384,14.289,39.578L14.289,39.578z M14.289,39.578"/>
	<path d="M16.28,39.724c0.007,0.2-0.227,0.367-0.516,0.371c-0.291,0.006-0.527-0.156-0.53-0.354c0-0.203,0.229-0.367,0.52-0.373
		C16.043,39.363,16.28,39.524,16.28,39.724L16.28,39.724z M16.28,39.724"/>
	<path d="M18.133,39.408c0.035,0.195-0.167,0.397-0.454,0.45c-0.283,0.052-0.544-0.069-0.58-0.264
		c-0.035-0.2,0.169-0.401,0.452-0.453C17.839,39.092,18.097,39.209,18.133,39.408L18.133,39.408z M18.133,39.408"/>
</g>
</svg>
