<?xml version="1.0" encoding="utf-8"?>
<!-- Generator: Adobe Illustrator 15.0.2, SVG Export Plug-In . SVG Version: 6.00 Build 0)  -->
<!DOCTYPE svg PUBLIC "-//W3C//DTD SVG 1.1//EN" "http://www.w3.org/Graphics/SVG/1.1/DTD/svg11.dtd">
<svg version="1.1" id="Layer_1" xmlns="http://www.w3.org/2000/svg" xmlns:xlink="http://www.w3.org/1999/xlink" x="0px" y="0px"
	 width="43.518px" height="36.682px" viewBox="0 0 43.518 36.682" enable-background="new 0 0 43.518 36.682" xml:space="preserve">
<g>
	<path d="M43.518,7.28h-7.611V0h-1.655v7.28h-7.28v1.985h7.28v7.28h1.655v-7.28h7.611V7.28z"/>
	<path d="M18.822,21.114c-1.026-0.727-2.99-2.494-2.99-3.533c0-1.218,0.348-1.817,2.18-3.25c1.879-1.468,3.208-3.457,3.208-5.858
		c0-2.857-1.272-5.825-3.662-6.487h3.602L23.703,0c0,0-8.521,0-11.36,0C7.25,0,2.457,3.858,2.457,8.328
		c0,4.566,3.472,8.253,8.653,8.253c0.36,0,0.71-0.007,1.053-0.032c-0.336,0.645-0.576,1.369-0.576,2.122
		c0,1.27,0.683,2.298,1.546,3.139c-0.652,0-1.282,0.019-1.969,0.019C4.855,21.828,0,25.846,0,30.012c0,4.104,5.322,6.67,11.631,6.67
		c7.191,0,11.164-4.081,11.164-8.184C22.795,25.208,21.823,23.237,18.822,21.114z M12.753,15.423
		c-2.927-0.087-5.708-3.274-6.213-7.117c-0.505-3.844,1.457-6.785,4.384-6.697c2.926,0.088,5.708,3.171,6.214,7.015
		C17.642,12.467,15.679,15.511,12.753,15.423z M11.607,34.868c-4.36,0-7.509-2.761-7.509-6.076c0-3.25,3.906-5.954,8.266-5.907
		c1.018,0.011,1.966,0.175,2.827,0.453c2.367,1.646,4.065,2.576,4.544,4.452c0.09,0.38,0.139,0.771,0.139,1.171
		C19.874,32.276,17.737,34.868,11.607,34.868z"/>
</g>
</svg>
