<?xml version="1.0" encoding="utf-8"?>
<!-- Generator: Adobe Illustrator 15.0.2, SVG Export Plug-In . SVG Version: 6.00 Build 0)  -->
<!DOCTYPE svg PUBLIC "-//W3C//DTD SVG 1.1//EN" "http://www.w3.org/Graphics/SVG/1.1/DTD/svg11.dtd">
<svg version="1.1" id="Multiple_Professions" xmlns="http://www.w3.org/2000/svg" xmlns:xlink="http://www.w3.org/1999/xlink"
	 x="0px" y="0px" width="85.49px" height="78.602px" viewBox="0 0 85.49 78.602" enable-background="new 0 0 85.49 78.602"
	 xml:space="preserve">
<path fill="#F58233" d="M35.583,78.602H8.656c-0.508,0-0.966-0.308-1.158-0.777L0.936,61.501c-0.157-0.386-0.112-0.823,0.121-1.169
	c0.232-0.347,0.621-0.554,1.037-0.554h39.875c0.414,0,0.801,0.205,1.034,0.549c0.232,0.343,0.28,0.777,0.128,1.163l-6.385,16.321
	C36.557,78.289,36.096,78.602,35.583,78.602z"/>
<circle fill="#F58233" cx="12.75" cy="44.571" r="2.417"/>
<circle fill="#F58233" cx="30.75" cy="44.571" r="2.417"/>
<path fill="#F58233" d="M25.231,54.918c-0.035,0.035-0.892,0.857-3.152,0.857c-2.268,0-3.276-0.951-3.337-1.011
	c-0.381-0.393-1.006-0.406-1.404-0.03c-0.401,0.38-0.419,1.013-0.04,1.413c0.157,0.167,1.629,1.628,4.781,1.628
	c3.163,0,4.475-1.341,4.614-1.493c0.365-0.4,0.335-1.011-0.057-1.386C26.245,54.521,25.616,54.536,25.231,54.918z"/>
<path fill="#F58233" d="M44.209,78.602c0-2.063-2.063-5.432-2.406-5.979l-2.589,5.979C41.876,78.602,43.722,78.602,44.209,78.602z"
	/>
<path fill="#F58233" d="M2.563,72.539c0,0-2.563,3.625-2.563,6.063c0.839,0,2.641,0,5.036,0L2.563,72.539z"/>
<path fill="#F58233" d="M44,54.695c1.209,0,34.375,0,36.916,0c-0.207-6.542-5.332-12.541-5.332-12.541s-5.399,4.624-13.126,4.624
	s-13.166-5.333-13.166-5.333S44.291,48.111,44,54.695z"/>
<path fill="#F58233" d="M66.169,33.671l-0.699-0.709c-0.035,0.035-0.896,0.857-3.152,0.857c-2.269,0-3.277-0.951-3.338-1.011
	c-0.381-0.393-1.006-0.407-1.404-0.03c-0.401,0.38-0.42,1.013-0.04,1.413c0.157,0.167,1.63,1.628,4.782,1.628
	c3.199,0,4.654-1.353,4.82-1.846l-0.945-0.321L66.169,33.671z"/>
<circle fill="#F58233" cx="54.875" cy="25.758" r="2.25"/>
<circle fill="#F58233" cx="69.875" cy="25.758" r="2.25"/>
<path fill="#F58233" d="M79.542,8.256c-2.842-0.478-5.947-0.592-7.71-1.108c0.737-2.438,4.595-3.759,4.595-3.759L74.5,0
	c0,0-4.375,3.153-5.416,6.111c-1.293-0.375-5.896-6.56-14.584-6.083C46.917,0.445,44,5.945,44.166,10.466
	c0.147,4.028,3.451,7.042,4.353,7.792c-1.563,2.523-2.48,5.486-2.48,8.666c0,9.11,7.412,16.521,16.521,16.521
	c9.108,0,16.521-7.41,16.521-16.521c0-2.494-0.571-4.852-1.565-6.974c0.705,0.184,1.379,0.307,1.985,0.327
	c2.417,0.084,5.492-1.146,5.942-5.207C85.942,10.571,82.384,8.732,79.542,8.256z M76.08,26.924c0,7.456-6.065,13.521-13.521,13.521
	S49.037,34.38,49.037,26.924c0-3.667,1.473-6.993,3.851-9.431c3.088-0.604,7.107-1.142,9.147-0.383c3.584,1.333,4.5,5.333,4.5,5.333
	s2.276-3.625,2.132-5.833c0.784,0.077,2.396,0.831,4.247,1.636C74.888,20.598,76.08,23.623,76.08,26.924z"/>
<path fill="#F58233" d="M40.684,40.079c-0.476-2.659-1.487-5.135-2.945-7.291c-0.311-0.962-0.977-2.247-2.405-3.594
	c-2.917-2.75-5.25-3.5-5.25-3.5s0.51-0.344,0.25-2.5c-0.213-1.769-0.75-2.5-0.75-2.5s-1.917,2.667-2.75,3.167
	s-3.667-0.75-5.25-2.667s-3-4.417-3-4.417s-0.917,0.833-1.333,2.083s-0.167,2.917-0.167,2.917S12.75,21.612,11,22.529
	s-4.417,3.083-4.417,3.083h3.583c0,0-3,2.416-4.083,3.583S3,34.445,3,34.445s0.958-0.111,2.279-0.315
	c-1.063,1.889-1.8,3.978-2.167,6.192C2.459,41.6,2.083,43.04,2.083,44.57c0,2.234,0.788,4.286,2.098,5.898
	c1.144,2.865,2.962,5.392,5.258,7.383h5.37c-2.006-0.994-3.775-2.396-5.203-4.092c0.599,0.121,1.218,0.186,1.853,0.186
	c3.704,0,6.904-2.165,8.426-5.291h4.148c1.522,3.126,4.722,5.291,8.426,5.291c0.6,0,1.185-0.063,1.754-0.171
	c-1.425,1.69-3.188,3.087-5.188,4.077h5.37c2.246-1.948,4.035-4.409,5.183-7.197c1.402-1.639,2.255-3.762,2.255-6.084
	C41.833,42.943,41.416,41.414,40.684,40.079z M11.458,51.445c-3.791,0-6.875-3.084-6.875-6.875c0-3.79,3.084-6.874,6.875-6.874
	s6.875,3.084,6.875,6.874C18.333,48.361,15.249,51.445,11.458,51.445z M23.082,44.569c0,0.154,0.016,0.307,0.023,0.458H20.81
	c0.008-0.151,0.023-0.303,0.023-0.457c0-5.169-4.206-9.374-9.375-9.374c-1.336,0-2.605,0.286-3.757,0.792
	c0.498-0.946,1.087-1.836,1.756-2.66c0.784-0.191,1.523-0.401,2.126-0.633c2.833-1.083,6.833-2.667,6.833-2.667
	s4.666,4.5,8.333,3.75c3.419-0.698,2.593-1.9,6.969-1.219c0.932,1.014,1.732,2.147,2.384,3.373
	c-1.121-0.475-2.353-0.737-3.645-0.737C27.288,35.195,23.082,39.4,23.082,44.569z M32.458,51.445c-3.791,0-6.875-3.084-6.875-6.875
	c0-3.79,3.084-6.874,6.875-6.874s6.875,3.084,6.875,6.874C39.333,48.361,36.249,51.445,32.458,51.445z"/>
</svg>
