<?xml version="1.0" encoding="utf-8"?>
<!-- Generator: Adobe Illustrator 15.0.2, SVG Export Plug-In . SVG Version: 6.00 Build 0)  -->
<!DOCTYPE svg PUBLIC "-//W3C//DTD SVG 1.1//EN" "http://www.w3.org/Graphics/SVG/1.1/DTD/svg11.dtd">
<svg version="1.1" id="Layer_1" xmlns="http://www.w3.org/2000/svg" xmlns:xlink="http://www.w3.org/1999/xlink" x="0px" y="0px"
	 width="43.004px" height="43.004px" viewBox="0 0 43.004 43.004" enable-background="new 0 0 43.004 43.004" xml:space="preserve">
<path d="M41.207,24.615c0.161-1.016,0.246-2.054,0.246-3.114c0-11.019-8.933-19.951-19.952-19.951c-1.058,0-2.099,0.087-3.114,0.245
	C16.55,0.658,14.381,0,12.057,0C5.398,0,0,5.397,0,12.057c0,2.324,0.659,4.491,1.795,6.332c-0.157,1.017-0.244,2.053-0.244,3.112
	c0,11.02,8.933,19.949,19.95,19.949c1.058,0,2.1-0.081,3.114-0.241c1.84,1.135,4.006,1.795,6.33,1.795
	c6.66,0,12.059-5.398,12.059-12.059C43.004,28.622,42.346,26.455,41.207,24.615z M30.973,30.575
	c-0.844,1.215-2.083,2.164-3.703,2.847c-1.623,0.685-3.542,1.025-5.758,1.025c-2.656,0-4.854-0.465-6.59-1.403
	c-1.23-0.672-2.23-1.573-3-2.697c-0.771-1.125-1.162-2.227-1.162-3.3c0-0.635,0.242-1.186,0.712-1.635
	c0.476-0.452,1.088-0.679,1.81-0.679c0.592,0,1.101,0.178,1.515,0.531c0.411,0.353,0.755,0.866,1.037,1.544
	c0.337,0.785,0.705,1.44,1.095,1.964c0.388,0.518,0.934,0.949,1.641,1.287c0.7,0.339,1.63,0.508,2.795,0.508
	c1.595,0,2.883-0.345,3.869-1.024c0.99-0.687,1.467-1.521,1.467-2.531c0-0.805-0.256-1.444-0.782-1.942
	c-0.53-0.505-1.218-0.89-2.067-1.157c-0.855-0.271-2.002-0.559-3.44-0.862c-1.93-0.42-3.545-0.911-4.852-1.474
	c-1.31-0.566-2.352-1.339-3.125-2.314c-0.774-0.986-1.161-2.211-1.161-3.662c0-1.385,0.407-2.622,1.224-3.698
	c0.815-1.08,1.996-1.907,3.534-2.482c1.534-0.576,3.339-0.863,5.407-0.863c1.652,0,3.084,0.191,4.295,0.571
	c1.207,0.384,2.214,0.891,3.019,1.525c0.8,0.634,1.388,1.302,1.761,2.004c0.373,0.703,0.561,1.391,0.561,2.061
	c0,0.623-0.242,1.188-0.713,1.685s-1.072,0.749-1.775,0.747c-0.635,0-1.132-0.146-1.477-0.456c-0.336-0.3-0.689-0.776-1.07-1.441
	c-0.482-0.928-1.061-1.649-1.732-2.167c-0.654-0.507-1.732-0.771-3.235-0.768c-1.389,0-2.501,0.283-3.34,0.839
	c-0.844,0.564-1.248,1.219-1.25,1.985c0.001,0.481,0.139,0.886,0.417,1.232c0.283,0.351,0.675,0.653,1.18,0.909
	c0.505,0.259,1.019,0.46,1.536,0.604c0.522,0.147,1.389,0.361,2.593,0.645c1.511,0.326,2.882,0.689,4.113,1.087
	c1.229,0.398,2.278,0.879,3.145,1.451c0.874,0.571,1.556,1.299,2.044,2.178c0.49,0.881,0.734,1.956,0.734,3.222
	C32.244,27.991,31.819,29.361,30.973,30.575z"/>
</svg>
