<?xml version="1.0" encoding="utf-8"?>
<!-- Generator: Adobe Illustrator 15.0.2, SVG Export Plug-In . SVG Version: 6.00 Build 0)  -->
<!DOCTYPE svg PUBLIC "-//W3C//DTD SVG 1.1//EN" "http://www.w3.org/Graphics/SVG/1.1/DTD/svg11.dtd">
<svg version="1.1" id="Layer_1" xmlns="http://www.w3.org/2000/svg" xmlns:xlink="http://www.w3.org/1999/xlink" x="0px" y="0px"
	 width="44.31px" height="36.01px" viewBox="0 0 44.31 36.01" enable-background="new 0 0 44.31 36.01" xml:space="preserve">
<g>
	<path d="M44.31,4.263c-1.63,0.723-3.382,1.212-5.221,1.432c1.877-1.125,3.318-2.906,3.997-5.029
		c-1.757,1.042-3.703,1.798-5.773,2.205C35.654,1.104,33.292,0,30.678,0c-5.021,0-9.091,4.07-9.091,9.091
		c0,0.712,0.08,1.406,0.235,2.071C14.268,10.783,7.569,7.163,3.086,1.664c-0.783,1.343-1.231,2.904-1.231,4.57
		c0,3.153,1.604,5.936,4.044,7.566c-1.49-0.048-2.892-0.456-4.117-1.137C1.78,12.701,1.78,12.739,1.78,12.778
		c0,4.404,3.134,8.078,7.292,8.913c-0.763,0.208-1.565,0.319-2.395,0.319c-0.586,0-1.156-0.058-1.711-0.163
		c1.157,3.611,4.514,6.239,8.492,6.313c-3.111,2.438-7.031,3.892-11.29,3.892c-0.733,0-1.457-0.043-2.169-0.128
		c4.023,2.58,8.802,4.086,13.936,4.086c16.721,0,25.864-13.853,25.864-25.865c0-0.395-0.009-0.786-0.026-1.176
		C41.55,7.687,43.091,6.085,44.31,4.263z"/>
</g>
</svg>
