<?xml version="1.0" encoding="utf-8"?>
<!-- Generator: Adobe Illustrator 15.0.2, SVG Export Plug-In . SVG Version: 6.00 Build 0)  -->
<!DOCTYPE svg PUBLIC "-//W3C//DTD SVG 1.1//EN" "http://www.w3.org/Graphics/SVG/1.1/DTD/svg11.dtd">
<svg version="1.1" id="Layer_1" xmlns="http://www.w3.org/2000/svg" xmlns:xlink="http://www.w3.org/1999/xlink" x="0px" y="0px"
	 width="95.74px" height="83.484px" viewBox="0 0 95.74 83.484" enable-background="new 0 0 95.74 83.484" xml:space="preserve">
<g>
	<path fill="#F58233" d="M75.613,48.545c2.682,5.099,0.719,11.405-4.38,14.086L34.097,82.284c-5.099,2.681-11.405,0.72-14.084-4.379
		l0,0c-2.68-5.101-0.719-11.406,4.38-14.085L61.53,44.166C66.629,41.486,72.935,43.446,75.613,48.545L75.613,48.545z"/>
</g>
<path fill="#F58233" d="M64.827,39.319c6.161-0.298,9.536,1.577,13.078,5.848c3.755-4.104,17.994-20,17.834-45.167
	C88.822-0.015,73.994,16.152,64.827,39.319z M88.113,20.875c-1.729,4.003-3.625,7.371-6.541,11.875
	C78.863,30.458,85.051,20.021,88.113,20.875z"/>
<path fill="#F58233" d="M15.572,71.167c0.981-5.49,1.552-9.679,2.498-15.313c-2.583-5.021-6.144-7.896-9.329-8.021
	c1.998,3.083,2.664,5.875,2.081,8.167c-7.333-0.667-5.271-13.806-5.333-18.354c-3.229,3.729-8.388,10.276-3.438,21.125
	C4.988,65.208,10.238,68.396,15.572,71.167z"/>
<path fill="#F58233" d="M20.238,62.458c5.498-3.041,11.625-6.167,11.625-6.167l-2.063-4.583l4.188-2.375l-2.75-5.25l3.642-2.247
	l-2.514-4.871l3.956-2.382l-2.75-5.167l4.25-2.75c0,0-3.896-8.271-6.583-9.333C27.488,17.333,21.238,54.75,20.238,62.458z"/>
</svg>
